<svg xmlns="http://www.w3.org/2000/svg" xmlns:xlink="http://www.w3.org/1999/xlink" width="500" zoomAndPan="magnify" viewBox="0 0 375 374.999991" height="500" preserveAspectRatio="xMidYMid meet" version="1.0"><defs><clipPath id="fd62f5a937"><path d="M 261 205 L 318 205 L 318 330 L 261 330 Z M 261 205 " clip-rule="nonzero"/></clipPath><clipPath id="3958ae4b34"><path d="M 295.890625 205.917969 L 375 228.710938 L 340.402344 348.789062 L 261.292969 325.996094 Z M 295.890625 205.917969 " clip-rule="nonzero"/></clipPath><clipPath id="f6548a67cf"><path d="M 129.847656 21.8125 L 412.378906 103.214844 L 330.976562 385.746094 L 48.445312 304.347656 Z M 129.847656 21.8125 " clip-rule="nonzero"/></clipPath><clipPath id="5e73c9cf01"><path d="M 261 205 L 272 205 L 272 330 L 261 330 Z M 261 205 " clip-rule="nonzero"/></clipPath><clipPath id="421aecd646"><path d="M 295.890625 205.917969 L 375 228.710938 L 340.402344 348.789062 L 261.292969 325.996094 Z M 295.890625 205.917969 " clip-rule="nonzero"/></clipPath><clipPath id="7380ebc690"><path d="M 129.847656 21.8125 L 412.378906 103.214844 L 330.976562 385.746094 L 48.445312 304.347656 Z M 129.847656 21.8125 " clip-rule="nonzero"/></clipPath><clipPath id="b365daa3bc"><path d="M 267 232 L 360 232 L 360 304 L 267 304 Z M 267 232 " clip-rule="nonzero"/></clipPath><clipPath id="6d4f480453"><path d="M 295.890625 205.917969 L 375 228.710938 L 340.402344 348.789062 L 261.292969 325.996094 Z M 295.890625 205.917969 " clip-rule="nonzero"/></clipPath><clipPath id="8a54129d11"><path d="M 129.847656 21.8125 L 412.378906 103.214844 L 330.976562 385.746094 L 48.445312 304.347656 Z M 129.847656 21.8125 " clip-rule="nonzero"/></clipPath><clipPath id="40ca7b543c"><path d="M 29.9375 46.601562 L 323.960938 46.601562 L 323.960938 189 L 29.9375 189 Z M 29.9375 46.601562 " clip-rule="nonzero"/></clipPath><clipPath id="08fdea22d3"><path d="M 29.9375 188 L 323.960938 188 L 323.960938 330.335938 L 29.9375 330.335938 Z M 29.9375 188 " clip-rule="nonzero"/></clipPath><clipPath id="6cb5c1c80e"><path d="M 2.53125 96 L 103.96875 96 L 103.96875 141 L 2.53125 141 Z M 2.53125 96 " clip-rule="nonzero"/></clipPath><clipPath id="66d6f8e552"><path d="M 274.15625 119 L 375 119 L 375 164 L 274.15625 164 Z M 274.15625 119 " clip-rule="nonzero"/></clipPath><clipPath id="7b6f85df76"><path d="M 127.144531 76 L 133 76 L 133 81 L 127.144531 81 Z M 127.144531 76 " clip-rule="nonzero"/></clipPath><clipPath id="e715b2cdcf"><path d="M 198 55.65625 L 202.121094 55.65625 L 202.121094 59 L 198 59 Z M 198 55.65625 " clip-rule="nonzero"/></clipPath><clipPath id="eb90ae6cbc"><path d="M 189 92 L 196 92 L 196 95.347656 L 189 95.347656 Z M 189 92 " clip-rule="nonzero"/></clipPath></defs><g clip-path="url(#fd62f5a937)"><g clip-path="url(#3958ae4b34)"><g clip-path="url(#f6548a67cf)"><path fill="#64989a" d="M 205.492188 189.308594 L 102.9375 159.761719 C 102.9375 159.761719 80.417969 237.917969 121.050781 298.324219 L 228.652344 329.328125 C 295.207031 299.804688 317.726562 221.644531 317.726562 221.644531 L 205.492188 189.308594 " fill-opacity="1" fill-rule="nonzero"/></g></g></g><g clip-path="url(#5e73c9cf01)"><g clip-path="url(#421aecd646)"><g clip-path="url(#7380ebc690)"><path fill="#d9d2bc" d="M 228.652344 329.328125 L 121.050781 298.324219 C 80.582031 238.171875 102.75 160.40625 102.933594 159.765625 C 102.933594 159.765625 102.933594 159.765625 102.9375 159.761719 L 133.371094 168.53125 C 144.570312 197.441406 169.101562 269.113281 271.097656 299.585938 C 259.539062 311.25 245.511719 321.847656 228.652344 329.328125 " fill-opacity="1" fill-rule="nonzero"/></g></g></g><g clip-path="url(#b365daa3bc)"><g clip-path="url(#6d4f480453)"><g clip-path="url(#8a54129d11)"><path fill="#64989a" d="M 313.589844 233.265625 C 313.589844 233.265625 359.304688 224.734375 359.621094 257.914062 C 359.882812 285.660156 308.527344 307.925781 267.175781 303.40625 L 272.640625 297.554688 C 272.640625 297.554688 348.46875 278.050781 340.328125 256.304688 C 333.066406 236.929688 306.113281 249.910156 306.113281 249.910156 L 313.589844 233.265625 " fill-opacity="1" fill-rule="nonzero"/></g></g></g><g clip-path="url(#40ca7b543c)"><path fill="#feaf77" d="M 176.949219 46.789062 C 95.789062 46.789062 29.9375 110.203125 29.9375 188.441406 L 323.90625 188.441406 C 323.960938 110.203125 258.105469 46.789062 176.949219 46.789062 Z M 176.949219 46.789062 " fill-opacity="1" fill-rule="nonzero"/></g><g clip-path="url(#08fdea22d3)"><path fill="#64989a" d="M 176.949219 330.148438 C 258.105469 330.148438 323.960938 266.734375 323.960938 188.496094 L 29.9375 188.496094 C 29.9375 266.734375 95.789062 330.148438 176.949219 330.148438 Z M 176.949219 330.148438 " fill-opacity="1" fill-rule="nonzero"/></g><path fill="#fed987" d="M 176.949219 110.871094 C 132.488281 110.871094 96.402344 145.644531 96.402344 188.496094 L 257.4375 188.496094 C 257.492188 145.585938 221.410156 110.871094 176.949219 110.871094 Z M 176.949219 110.871094 " fill-opacity="1" fill-rule="nonzero"/><path fill="#192f32" d="M 67.246094 206.828125 C 74.566406 206.828125 81.882812 206.828125 89.199219 206.828125 C 106.679688 206.828125 124.109375 206.828125 141.589844 206.828125 C 162.816406 206.828125 184.042969 206.828125 205.265625 206.828125 C 223.585938 206.828125 241.964844 206.828125 260.285156 206.828125 C 266.316406 206.828125 272.351562 206.828125 278.328125 206.828125 C 281.175781 206.828125 284.136719 207.050781 286.929688 206.828125 C 287.039062 206.828125 287.207031 206.828125 287.320312 206.828125 C 287.878906 206.828125 289.050781 205.992188 287.988281 205.992188 C 280.671875 205.992188 273.355469 205.992188 266.039062 205.992188 C 248.554688 205.992188 231.128906 205.992188 213.644531 205.992188 C 192.421875 205.992188 171.195312 205.992188 149.96875 205.992188 C 131.648438 205.992188 113.273438 205.992188 94.953125 205.992188 C 88.917969 205.992188 82.886719 205.992188 76.910156 205.992188 C 74.0625 205.992188 71.101562 205.769531 68.308594 205.992188 C 68.195312 205.992188 68.03125 205.992188 67.917969 205.992188 C 67.304688 205.9375 66.128906 206.828125 67.246094 206.828125 Z M 67.246094 206.828125 " fill-opacity="1" fill-rule="nonzero"/><path fill="#192f32" d="M 82.050781 230.234375 C 103.441406 230.234375 124.835938 230.234375 146.226562 230.234375 C 180.132812 230.234375 214.035156 230.234375 247.886719 230.234375 C 255.703125 230.234375 263.523438 230.234375 271.34375 230.234375 C 271.902344 230.234375 273.074219 229.398438 272.015625 229.398438 C 250.621094 229.398438 229.230469 229.398438 207.835938 229.398438 C 173.933594 229.398438 140.027344 229.398438 106.179688 229.398438 C 98.359375 229.398438 90.539062 229.398438 82.71875 229.398438 C 82.105469 229.34375 80.933594 230.234375 82.050781 230.234375 Z M 82.050781 230.234375 " fill-opacity="1" fill-rule="nonzero"/><path fill="#192f32" d="M 96.125 253.636719 C 113.941406 253.636719 131.761719 253.636719 149.523438 253.636719 C 178.007812 253.636719 206.496094 253.636719 234.980469 253.636719 C 241.515625 253.636719 247.996094 253.636719 254.53125 253.636719 C 255.089844 253.636719 256.261719 252.800781 255.203125 252.800781 C 237.382812 252.800781 219.566406 252.800781 201.804688 252.800781 C 173.316406 252.800781 144.832031 252.800781 116.34375 252.800781 C 109.808594 252.800781 103.332031 252.800781 96.796875 252.800781 C 96.179688 252.746094 95.007812 253.636719 96.125 253.636719 Z M 96.125 253.636719 " fill-opacity="1" fill-rule="nonzero"/><path fill="#192f32" d="M 119.808594 277.042969 C 132.429688 277.042969 145.054688 277.042969 157.621094 277.042969 C 177.730469 277.042969 197.78125 277.042969 217.890625 277.042969 C 222.46875 277.042969 227.050781 277.042969 231.6875 277.042969 C 232.246094 277.042969 233.417969 276.207031 232.355469 276.207031 C 219.734375 276.207031 207.109375 276.207031 194.542969 276.207031 C 174.433594 276.207031 154.382812 276.207031 134.273438 276.207031 C 129.695312 276.207031 125.113281 276.207031 120.476562 276.207031 C 119.863281 276.152344 118.691406 277.042969 119.808594 277.042969 Z M 119.808594 277.042969 " fill-opacity="1" fill-rule="nonzero"/><path fill="#192f32" d="M 137.234375 300.445312 C 160.191406 300.445312 183.148438 300.445312 206.105469 300.445312 C 209.398438 300.445312 212.695312 300.445312 215.992188 300.445312 C 216.550781 300.445312 217.722656 299.609375 216.660156 299.609375 C 193.703125 299.609375 170.75 299.609375 147.792969 299.609375 C 144.496094 299.609375 141.199219 299.609375 137.90625 299.609375 C 137.347656 299.554688 136.171875 300.445312 137.234375 300.445312 Z M 137.234375 300.445312 " fill-opacity="1" fill-rule="nonzero"/><path fill="#fff1d0" d="M 102.605469 120.585938 C 101.804688 122.882812 99.546875 124.40625 97.234375 125.277344 C 94.503906 126.308594 91.507812 126.632812 88.609375 126.269531 C 88.253906 130.878906 84.753906 135.125 80.207031 136.375 C 76.472656 137.402344 72.265625 136.347656 69.355469 133.851562 C 66.613281 137.3125 62.285156 139.5625 57.804688 139.738281 C 53.527344 139.910156 49.234375 138.1875 46.222656 135.21875 C 44.75 136.828125 43.039062 138.226562 41.0625 139.179688 C 38.359375 140.484375 35.125 140.890625 32.296875 139.871094 C 30.496094 139.222656 28.914062 137.9375 27.945312 136.328125 C 25.363281 138.339844 21.371094 138.601562 18.652344 136.710938 C 15.875 134.777344 14.820312 130.875 16.023438 127.789062 C 13.351562 128.761719 10.367188 128.925781 7.613281 128.207031 C 5.757812 127.722656 3.8125 126.613281 3.429688 124.773438 C 3.128906 123.34375 3.867188 121.902344 4.757812 120.734375 C 7.699219 116.859375 12.429688 114.542969 17.28125 113.699219 C 21.367188 112.988281 25.554688 113.226562 29.671875 113.851562 C 29.730469 111.5625 31.441406 109.296875 33.644531 108.304688 C 35.550781 107.453125 37.679688 107.34375 39.773438 107.617188 C 40.710938 102.792969 44.683594 98.597656 49.566406 97.328125 C 55.085938 95.890625 61.332031 98.132812 64.839844 102.554688 C 67.148438 105.472656 68.25 109.214844 68.105469 112.910156 C 69.804688 111.613281 71.691406 110.554688 73.75 109.964844 C 76.527344 109.171875 79.652344 109.304688 82.160156 110.714844 C 83.617188 111.53125 84.816406 112.8125 85.519531 114.292969 C 87.121094 113.433594 88.769531 112.679688 90.523438 112.195312 C 93.449219 111.394531 96.742188 111.429688 99.34375 112.964844 C 101.949219 114.5 103.582031 117.765625 102.605469 120.585938 Z M 102.605469 120.585938 " fill-opacity="1" fill-rule="nonzero"/><g clip-path="url(#6cb5c1c80e)"><path fill="#fff1d0" d="M 100.433594 113.160156 C 97.816406 111.15625 94.203125 110.941406 91.070312 111.652344 C 89.210938 112.078125 87.453125 112.835938 85.769531 113.707031 C 84.570312 111.542969 82.472656 110.035156 80.035156 109.421875 C 77.320312 108.734375 74.421875 109.132812 71.871094 110.210938 C 70.71875 110.699219 69.632812 111.324219 68.609375 112.035156 C 68.5625 109.164062 67.820312 106.308594 66.320312 103.832031 C 64.816406 101.351562 62.566406 99.367188 59.933594 98.097656 C 54.753906 95.59375 48.460938 96.042969 44.019531 99.78125 C 41.730469 101.707031 40.066406 104.289062 39.378906 107.171875 C 37.007812 106.949219 34.519531 107.183594 32.476562 108.484375 C 30.777344 109.5625 29.472656 111.386719 29.21875 113.375 C 22.894531 112.488281 16.210938 112.566406 10.4375 115.550781 C 7.882812 116.875 5.476562 118.753906 3.910156 121.160156 C 3.101562 122.410156 2.539062 123.933594 3.09375 125.390625 C 3.546875 126.570312 4.589844 127.410156 5.714844 127.960938 C 8.625 129.375 12.226562 129.324219 15.320312 128.421875 C 14.707031 130.703125 15.117188 133.230469 16.488281 135.1875 C 18.125 137.527344 20.960938 138.628906 23.804688 138.339844 C 25.222656 138.199219 26.589844 137.726562 27.773438 136.953125 C 29.28125 139.097656 31.679688 140.449219 34.324219 140.757812 C 37.296875 141.109375 40.277344 140.246094 42.777344 138.683594 C 44.046875 137.890625 45.183594 136.917969 46.214844 135.851562 C 48.730469 138.148438 51.972656 139.644531 55.386719 140.039062 C 58.859375 140.441406 62.367188 139.621094 65.359375 137.859375 C 66.886719 136.960938 68.253906 135.808594 69.402344 134.472656 C 72.125 136.582031 75.710938 137.558594 79.152344 137 C 82.515625 136.457031 85.488281 134.347656 87.285156 131.53125 C 88.21875 130.070312 88.832031 128.425781 89.046875 126.714844 C 91.941406 126.972656 94.871094 126.617188 97.582031 125.5625 C 99.910156 124.652344 102.195312 123.082031 103.066406 120.683594 C 103.984375 117.929688 102.714844 114.902344 100.433594 113.160156 Z M 97.164062 124.878906 C 94.527344 125.910156 91.597656 126.222656 88.789062 125.886719 C 88.53125 125.851562 88.140625 125.949219 88.117188 126.265625 C 87.859375 129.308594 86.265625 132.164062 83.84375 134.074219 C 81.289062 136.085938 77.992188 136.800781 74.800781 136.085938 C 72.929688 135.664062 71.195312 134.796875 69.742188 133.566406 C 69.523438 133.382812 69.132812 133.425781 68.953125 133.648438 C 66.949219 136.152344 64.136719 138.019531 60.996094 138.855469 C 57.78125 139.710938 54.359375 139.417969 51.316406 138.097656 C 49.558594 137.335938 47.972656 136.261719 46.609375 134.933594 C 46.394531 134.722656 46.003906 134.820312 45.820312 135.015625 C 43.496094 137.542969 40.5 139.558594 36.984375 139.972656 C 33.597656 140.375 30.199219 139.042969 28.402344 136.128906 C 28.242188 135.875 27.84375 135.882812 27.628906 136.046875 C 25.628906 137.574219 22.808594 138.046875 20.421875 137.140625 C 18.128906 136.269531 16.613281 134.1875 16.171875 131.855469 C 15.917969 130.53125 16.019531 129.15625 16.496094 127.894531 C 16.65625 127.464844 16.136719 127.328125 15.820312 127.441406 C 13.066406 128.425781 9.800781 128.601562 7.023438 127.582031 C 5.910156 127.171875 4.789062 126.507812 4.210938 125.449219 C 3.484375 124.117188 4.039062 122.597656 4.824219 121.421875 C 7.773438 116.984375 13.222656 114.625 18.410156 113.925781 C 22.089844 113.425781 25.839844 113.6875 29.5 114.238281 C 29.746094 114.273438 30.160156 114.171875 30.171875 113.855469 C 30.25 111.9375 31.394531 110.195312 32.996094 109.128906 C 34.902344 107.859375 37.386719 107.726562 39.601562 108.003906 C 39.890625 108.039062 40.210938 107.933594 40.273438 107.621094 C 41.292969 102.542969 45.640625 98.308594 50.867188 97.460938 C 56.175781 96.601562 61.84375 99.097656 64.878906 103.417969 C 66.828125 106.1875 67.726562 109.5625 67.613281 112.910156 C 67.601562 113.328125 68.152344 113.410156 68.429688 113.199219 C 71.015625 111.234375 74.09375 109.804688 77.425781 109.886719 C 80.664062 109.96875 83.644531 111.585938 85.066406 114.5 C 85.171875 114.714844 85.542969 114.742188 85.730469 114.644531 C 88.535156 113.144531 91.589844 111.925781 94.84375 112.097656 C 97.730469 112.25 100.445312 113.628906 101.746094 116.242188 C 102.398438 117.550781 102.601562 119.082031 102.136719 120.476562 C 101.339844 122.671875 99.292969 124.050781 97.164062 124.878906 Z M 97.164062 124.878906 " fill-opacity="1" fill-rule="nonzero"/></g><g clip-path="url(#66d6f8e552)"><path fill="#fff1d0" d="M 374.230469 143.6875 C 373.433594 145.984375 371.171875 147.507812 368.863281 148.378906 C 366.128906 149.410156 363.136719 149.738281 360.234375 149.371094 C 359.878906 153.980469 356.378906 158.226562 351.832031 159.476562 C 348.097656 160.507812 343.890625 159.449219 340.984375 156.953125 C 338.238281 160.414062 333.910156 162.664062 329.429688 162.84375 C 325.15625 163.011719 320.863281 161.289062 317.851562 158.320312 C 316.375 159.933594 314.664062 161.328125 312.6875 162.28125 C 309.984375 163.585938 306.75 163.992188 303.921875 162.972656 C 302.125 162.324219 300.542969 161.039062 299.570312 159.429688 C 296.988281 161.441406 293 161.707031 290.28125 159.8125 C 287.5 157.878906 286.449219 153.976562 287.652344 150.890625 C 284.980469 151.867188 281.996094 152.027344 279.238281 151.308594 C 277.386719 150.824219 275.4375 149.71875 275.054688 147.875 C 274.757812 146.445312 275.496094 145.007812 276.382812 143.835938 C 279.324219 139.960938 284.054688 137.644531 288.90625 136.800781 C 292.992188 136.089844 297.183594 136.328125 301.296875 136.953125 C 301.355469 134.664062 303.066406 132.398438 305.269531 131.40625 C 307.175781 130.554688 309.304688 130.445312 311.398438 130.71875 C 312.335938 125.894531 316.308594 121.703125 321.191406 120.429688 C 326.714844 118.992188 332.960938 121.234375 336.464844 125.65625 C 338.777344 128.574219 339.875 132.316406 339.734375 136.015625 C 341.429688 134.714844 343.316406 133.65625 345.378906 133.066406 C 348.15625 132.273438 351.277344 132.40625 353.789062 133.816406 C 355.242188 134.632812 356.441406 135.914062 357.144531 137.398438 C 358.746094 136.535156 360.394531 135.78125 362.148438 135.296875 C 365.074219 134.496094 368.367188 134.53125 370.972656 136.066406 C 373.574219 137.601562 375.207031 140.867188 374.230469 143.6875 Z M 374.230469 143.6875 " fill-opacity="1" fill-rule="nonzero"/><path fill="#fff1d0" d="M 372.058594 136.261719 C 369.441406 134.261719 365.828125 134.042969 362.699219 134.753906 C 360.839844 135.179688 359.078125 135.9375 357.394531 136.8125 C 356.195312 134.648438 354.097656 133.136719 351.660156 132.523438 C 348.945312 131.835938 346.046875 132.234375 343.5 133.3125 C 342.347656 133.800781 341.261719 134.429688 340.238281 135.136719 C 340.191406 132.265625 339.449219 129.410156 337.945312 126.933594 C 336.441406 124.457031 334.195312 122.46875 331.5625 121.199219 C 326.378906 118.695312 320.085938 119.148438 315.644531 122.882812 C 313.355469 124.808594 311.691406 127.394531 311.003906 130.273438 C 308.632812 130.050781 306.144531 130.285156 304.105469 131.585938 C 302.40625 132.667969 301.097656 134.488281 300.84375 136.476562 C 294.519531 135.59375 287.835938 135.667969 282.0625 138.652344 C 279.507812 139.976562 277.105469 141.855469 275.539062 144.265625 C 274.726562 145.511719 274.164062 147.035156 274.722656 148.492188 C 275.171875 149.671875 276.21875 150.515625 277.34375 151.0625 C 280.25 152.480469 283.851562 152.425781 286.949219 151.523438 C 286.335938 153.804688 286.746094 156.332031 288.113281 158.289062 C 289.753906 160.628906 292.589844 161.730469 295.429688 161.441406 C 296.847656 161.300781 298.21875 160.828125 299.398438 160.054688 C 300.90625 162.199219 303.308594 163.550781 305.949219 163.863281 C 308.921875 164.210938 311.902344 163.347656 314.402344 161.785156 C 315.671875 160.992188 316.808594 160.019531 317.84375 158.953125 C 320.355469 161.25 323.597656 162.746094 327.011719 163.140625 C 330.488281 163.542969 333.996094 162.722656 336.984375 160.960938 C 338.511719 160.0625 339.878906 158.910156 341.027344 157.578125 C 343.75 159.683594 347.339844 160.660156 350.777344 160.105469 C 354.144531 159.558594 357.113281 157.449219 358.910156 154.636719 C 359.847656 153.171875 360.460938 151.527344 360.675781 149.816406 C 363.566406 150.074219 366.5 149.722656 369.207031 148.664062 C 371.535156 147.753906 373.820312 146.1875 374.691406 143.785156 C 375.613281 141.03125 374.339844 138.003906 372.058594 136.261719 Z M 368.792969 147.980469 C 366.152344 149.011719 363.226562 149.328125 360.414062 148.988281 C 360.15625 148.957031 359.769531 149.050781 359.742188 149.367188 C 359.484375 152.410156 357.894531 155.265625 355.46875 157.175781 C 352.914062 159.1875 349.621094 159.90625 346.429688 159.1875 C 344.558594 158.765625 342.820312 157.898438 341.367188 156.667969 C 341.148438 156.484375 340.757812 156.527344 340.582031 156.75 C 338.574219 159.253906 335.761719 161.121094 332.625 161.957031 C 329.40625 162.8125 325.984375 162.519531 322.941406 161.199219 C 321.1875 160.4375 319.597656 159.363281 318.238281 158.035156 C 318.019531 157.824219 317.628906 157.921875 317.449219 158.117188 C 315.121094 160.644531 312.128906 162.660156 308.613281 163.078125 C 305.222656 163.476562 301.828125 162.144531 300.027344 159.230469 C 299.871094 158.976562 299.46875 158.984375 299.253906 159.148438 C 297.253906 160.675781 294.433594 161.148438 292.050781 160.242188 C 289.757812 159.371094 288.238281 157.289062 287.796875 154.957031 C 287.546875 153.636719 287.644531 152.257812 288.125 150.996094 C 288.285156 150.566406 287.761719 150.429688 287.445312 150.542969 C 284.691406 151.527344 281.425781 151.707031 278.652344 150.683594 C 277.535156 150.273438 276.414062 149.609375 275.835938 148.550781 C 275.109375 147.21875 275.664062 145.699219 276.449219 144.523438 C 279.398438 140.085938 284.851562 137.726562 290.035156 137.027344 C 293.71875 136.527344 297.464844 136.789062 301.125 137.339844 C 301.371094 137.378906 301.785156 137.273438 301.796875 136.957031 C 301.875 135.039062 303.023438 133.296875 304.625 132.230469 C 306.527344 130.960938 309.015625 130.828125 311.230469 131.105469 C 311.515625 131.140625 311.839844 131.035156 311.902344 130.726562 C 312.921875 125.644531 317.265625 121.410156 322.492188 120.5625 C 327.800781 119.703125 333.472656 122.199219 336.507812 126.519531 C 338.453125 129.289062 339.351562 132.667969 339.242188 136.015625 C 339.226562 136.429688 339.777344 136.511719 340.058594 136.300781 C 342.640625 134.335938 345.71875 132.90625 349.050781 132.988281 C 352.292969 133.074219 355.273438 134.6875 356.695312 137.601562 C 356.800781 137.816406 357.171875 137.84375 357.359375 137.746094 C 360.160156 136.246094 363.21875 135.027344 366.46875 135.199219 C 369.359375 135.351562 372.070312 136.730469 373.371094 139.34375 C 374.023438 140.652344 374.226562 142.183594 373.761719 143.578125 C 372.96875 145.773438 370.917969 147.152344 368.792969 147.980469 Z M 368.792969 147.980469 " fill-opacity="1" fill-rule="nonzero"/></g><g clip-path="url(#7b6f85df76)"><path fill="#000000" d="M 127.171875 77.609375 C 127.378906 77.582031 127.582031 77.558594 127.785156 77.519531 C 127.90625 77.496094 128 77.441406 128.039062 77.296875 C 128.085938 77.101562 128.28125 76.941406 128.472656 76.96875 C 128.566406 76.984375 128.652344 76.96875 128.726562 76.984375 C 128.90625 77.011719 129.078125 76.949219 129.25 76.992188 C 129.390625 77.027344 129.488281 76.960938 129.558594 76.847656 C 129.582031 76.8125 129.609375 76.824219 129.632812 76.832031 C 129.699219 76.847656 129.632812 76.867188 129.632812 76.886719 C 129.644531 76.96875 129.714844 76.949219 129.753906 76.9375 C 129.980469 76.871094 130.199219 76.949219 130.417969 76.953125 C 130.578125 76.957031 130.726562 77.039062 130.875 77.097656 C 131.238281 77.238281 131.570312 77.476562 131.980469 77.5 C 132.109375 77.503906 132.234375 77.515625 132.363281 77.484375 C 132.539062 77.449219 132.71875 77.46875 132.890625 77.523438 C 132.929688 77.539062 132.988281 77.546875 132.976562 77.601562 C 132.964844 77.652344 132.90625 77.636719 132.863281 77.640625 C 132.484375 77.671875 132.105469 77.609375 131.726562 77.59375 C 131.671875 77.589844 131.613281 77.585938 131.554688 77.585938 C 131.425781 77.589844 131.339844 77.625 131.324219 77.78125 C 131.3125 77.917969 131.277344 78.058594 131.21875 78.183594 C 131.03125 78.574219 131.015625 78.996094 130.949219 79.410156 C 130.925781 79.550781 130.941406 79.707031 130.835938 79.832031 C 130.792969 79.882812 130.847656 79.96875 130.863281 80.039062 C 130.890625 80.15625 130.921875 80.265625 130.757812 80.316406 C 130.675781 80.34375 130.730469 80.476562 130.648438 80.503906 C 130.582031 80.527344 130.542969 80.375 130.453125 80.460938 C 130.433594 80.476562 130.398438 80.472656 130.386719 80.453125 C 130.308594 80.34375 130.152344 80.324219 130.082031 80.226562 C 129.878906 79.953125 129.628906 79.703125 129.527344 79.363281 C 129.484375 79.222656 129.445312 79.078125 129.445312 78.9375 C 129.441406 78.71875 129.394531 78.511719 129.308594 78.3125 C 129.25 78.167969 129.210938 78.027344 129.332031 77.855469 C 129.195312 77.914062 129.152344 78.007812 129.105469 78.078125 C 129 78.222656 128.816406 78.335938 128.851562 78.5625 C 128.859375 78.617188 128.820312 78.695312 128.753906 78.707031 C 128.675781 78.722656 128.683594 78.636719 128.65625 78.589844 C 128.636719 78.554688 128.617188 78.523438 128.59375 78.480469 C 128.546875 78.550781 128.554688 78.636719 128.507812 78.695312 C 128.480469 78.726562 128.457031 78.769531 128.40625 78.761719 C 128.355469 78.75 128.355469 78.707031 128.347656 78.667969 C 128.332031 78.5625 128.316406 78.457031 128.191406 78.601562 C 128.164062 78.632812 128.113281 78.652344 128.070312 78.632812 C 128.035156 78.613281 128.046875 78.570312 128.046875 78.539062 C 128.058594 78.421875 128.042969 78.339844 127.890625 78.398438 C 127.84375 78.417969 127.78125 78.410156 127.8125 78.332031 C 127.859375 78.21875 127.804688 78.183594 127.6875 78.183594 C 127.773438 78.0625 127.78125 77.929688 127.832031 77.8125 C 127.867188 77.722656 127.832031 77.699219 127.742188 77.714844 C 127.546875 77.746094 127.363281 77.824219 127.171875 77.871094 Z M 128.917969 77.082031 C 128.925781 77.085938 128.929688 77.09375 128.9375 77.097656 C 128.9375 77.097656 128.945312 77.089844 128.945312 77.085938 C 128.941406 77.078125 128.9375 77.074219 128.933594 77.066406 C 128.929688 77.070312 128.925781 77.078125 128.917969 77.082031 Z M 128.917969 77.082031 " fill-opacity="1" fill-rule="nonzero"/></g><g clip-path="url(#e715b2cdcf)"><path fill="#000000" d="M 202.09375 57.898438 C 201.980469 57.941406 201.859375 57.929688 201.753906 57.894531 C 201.480469 57.796875 201.210938 57.832031 200.9375 57.867188 C 200.367188 57.945312 199.792969 58.003906 199.234375 58.164062 C 199.023438 58.222656 198.796875 58.21875 198.578125 58.242188 C 198.542969 58.246094 198.507812 58.246094 198.5 58.203125 C 198.488281 58.15625 198.515625 58.140625 198.550781 58.125 C 198.703125 58.058594 198.84375 57.976562 198.980469 57.875 C 199.09375 57.789062 199.238281 57.804688 199.351562 57.863281 C 199.417969 57.898438 199.464844 57.894531 199.523438 57.882812 C 199.753906 57.84375 199.988281 57.8125 200.21875 57.761719 C 200.527344 57.699219 200.753906 57.511719 200.953125 57.277344 C 201.105469 57.097656 201.136719 57.015625 201.074219 56.777344 C 201.007812 56.792969 201.007812 56.863281 200.96875 56.902344 C 200.941406 56.929688 200.914062 56.964844 200.871094 56.949219 C 200.820312 56.9375 200.828125 56.894531 200.828125 56.855469 C 200.832031 56.804688 200.832031 56.757812 200.839844 56.710938 C 200.851562 56.636719 200.855469 56.582031 200.789062 56.519531 C 200.71875 56.457031 200.753906 56.347656 200.753906 56.257812 C 200.75 56.167969 200.757812 56.089844 200.699219 56.011719 C 200.625 55.910156 200.742188 55.820312 200.738281 55.714844 C 200.734375 55.65625 200.859375 55.671875 200.917969 55.6875 C 201.136719 55.742188 201.359375 55.777344 201.574219 55.847656 C 201.742188 55.898438 201.921875 55.925781 202.09375 55.960938 C 202.09375 56.605469 202.09375 57.253906 202.09375 57.898438 Z M 202.09375 57.898438 " fill-opacity="1" fill-rule="nonzero"/></g><path fill="#000000" d="M 170.65625 81.925781 C 170.796875 81.933594 170.867188 81.808594 170.972656 81.75 C 171.03125 81.71875 171.082031 81.671875 171.136719 81.632812 C 171.167969 81.609375 171.210938 81.582031 171.238281 81.621094 C 171.265625 81.65625 171.238281 81.695312 171.210938 81.722656 C 171.09375 81.84375 170.957031 81.945312 170.828125 82.050781 C 170.808594 82.0625 170.785156 82.074219 170.789062 82.113281 C 170.960938 82.074219 171.097656 81.964844 171.253906 81.898438 C 171.332031 81.867188 171.449219 81.777344 171.484375 81.84375 C 171.523438 81.921875 171.382812 81.957031 171.316406 81.996094 C 171.191406 82.074219 171.058594 82.144531 170.933594 82.234375 C 171.167969 82.222656 171.386719 82.125 171.625 82.125 C 171.523438 82.238281 171.351562 82.199219 171.242188 82.292969 C 171.246094 82.300781 171.246094 82.3125 171.25 82.316406 C 171.320312 82.347656 171.429688 82.269531 171.457031 82.351562 C 171.480469 82.421875 171.363281 82.441406 171.324219 82.503906 C 171.242188 82.632812 171.167969 82.757812 171.167969 82.925781 C 171.167969 83.175781 171.105469 83.421875 170.941406 83.625 C 170.917969 83.652344 170.90625 83.695312 170.886719 83.726562 C 170.828125 83.804688 170.867188 83.847656 170.945312 83.847656 C 171.089844 83.839844 171.195312 83.921875 171.316406 83.984375 C 171.488281 84.070312 171.675781 84.054688 171.851562 84.003906 C 172.0625 83.941406 172.246094 83.984375 172.433594 84.066406 C 172.460938 84.078125 172.492188 84.09375 172.480469 84.128906 C 172.46875 84.164062 172.4375 84.1875 172.402344 84.183594 C 172.253906 84.171875 172.105469 84.214844 171.957031 84.203125 C 171.683594 84.179688 171.410156 84.183594 171.136719 84.195312 C 170.910156 84.203125 170.695312 84.269531 170.480469 84.335938 C 169.988281 84.480469 169.488281 84.621094 168.964844 84.492188 C 168.816406 84.457031 168.664062 84.425781 168.515625 84.390625 C 168.238281 84.332031 167.984375 84.445312 167.722656 84.496094 C 167.160156 84.601562 166.601562 84.738281 166.03125 84.804688 C 166.011719 84.71875 166.054688 84.671875 166.128906 84.636719 C 166.226562 84.59375 166.308594 84.53125 166.386719 84.457031 C 166.519531 84.339844 166.699219 84.347656 166.855469 84.386719 C 167.136719 84.464844 167.398438 84.410156 167.660156 84.324219 C 167.835938 84.265625 167.992188 84.167969 168.117188 84.03125 C 168.25 83.886719 168.441406 83.8125 168.574219 83.65625 C 168.621094 83.601562 168.65625 83.542969 168.664062 83.46875 C 168.71875 82.996094 168.632812 82.546875 168.390625 82.136719 C 168.316406 82.019531 168.285156 81.898438 168.320312 81.765625 C 168.351562 81.65625 168.347656 81.550781 168.332031 81.441406 C 168.269531 80.957031 168.402344 80.507812 168.585938 80.066406 C 168.605469 80.019531 168.660156 79.921875 168.683594 79.953125 C 168.746094 80.03125 168.925781 79.988281 168.898438 80.164062 C 168.875 80.296875 168.839844 80.425781 168.800781 80.59375 C 168.882812 80.445312 168.945312 80.328125 169.011719 80.210938 C 169.03125 80.179688 169.054688 80.136719 169.101562 80.148438 C 169.148438 80.160156 169.15625 80.207031 169.167969 80.25 C 169.1875 80.351562 169.132812 80.4375 169.09375 80.523438 C 169.066406 80.589844 169.042969 80.65625 169.035156 80.734375 C 169.113281 80.640625 169.191406 80.546875 169.269531 80.457031 C 169.300781 80.417969 169.335938 80.359375 169.398438 80.394531 C 169.464844 80.4375 169.449219 80.503906 169.417969 80.5625 C 169.371094 80.648438 169.316406 80.734375 169.257812 80.835938 C 169.390625 80.820312 169.464844 80.714844 169.570312 80.6875 C 169.601562 80.679688 169.628906 80.664062 169.652344 80.6875 C 169.679688 80.710938 169.679688 80.746094 169.664062 80.765625 C 169.566406 80.894531 169.636719 81.027344 169.683594 81.128906 C 169.835938 81.453125 169.9375 81.800781 170.167969 82.085938 C 170.246094 82.1875 170.277344 82.15625 170.332031 82.09375 C 170.496094 81.902344 170.652344 81.707031 170.839844 81.542969 C 170.875 81.511719 170.914062 81.449219 170.957031 81.480469 C 171.015625 81.523438 170.960938 81.578125 170.933594 81.617188 C 170.855469 81.734375 170.769531 81.84375 170.660156 81.929688 C 170.660156 81.933594 170.660156 81.9375 170.664062 81.941406 C 170.664062 81.949219 170.664062 81.953125 170.664062 81.960938 C 170.664062 81.949219 170.660156 81.9375 170.65625 81.925781 Z M 170.65625 81.925781 " fill-opacity="1" fill-rule="nonzero"/><path fill="#000000" d="M 138.261719 81.296875 C 138.355469 81.296875 138.402344 81.226562 138.453125 81.164062 C 138.539062 81.066406 138.621094 80.964844 138.707031 80.867188 C 138.730469 80.839844 138.757812 80.792969 138.796875 80.824219 C 138.835938 80.851562 138.8125 80.898438 138.789062 80.929688 C 138.703125 81.054688 138.632812 81.191406 138.515625 81.296875 C 138.496094 81.3125 138.472656 81.324219 138.480469 81.363281 C 138.703125 81.308594 138.847656 81.113281 139.089844 81.03125 C 138.992188 81.226562 138.800781 81.269531 138.6875 81.410156 C 138.824219 81.4375 138.925781 81.347656 139.046875 81.347656 C 139.039062 81.421875 138.953125 81.398438 138.941406 81.453125 C 138.949219 81.460938 138.953125 81.472656 138.960938 81.472656 C 139.15625 81.476562 139.171875 81.484375 139.082031 81.65625 C 138.9375 81.917969 138.890625 82.203125 138.824219 82.488281 C 138.785156 82.640625 138.703125 82.78125 138.601562 82.90625 C 138.53125 82.988281 138.570312 83.027344 138.648438 83.050781 C 138.726562 83.078125 138.808594 83.082031 138.890625 83.078125 C 139.003906 83.074219 139.117188 83.089844 139.191406 83.183594 C 139.316406 83.339844 139.488281 83.355469 139.667969 83.375 C 139.875 83.398438 140.078125 83.347656 140.285156 83.355469 C 140.410156 83.363281 140.53125 83.371094 140.65625 83.472656 C 140.453125 83.507812 140.269531 83.558594 140.09375 83.53125 C 139.226562 83.398438 138.363281 83.480469 137.503906 83.578125 C 137.25 83.609375 137.003906 83.59375 136.765625 83.5 C 136.523438 83.40625 136.285156 83.429688 136.050781 83.535156 C 135.886719 83.613281 135.710938 83.640625 135.53125 83.628906 C 134.984375 83.589844 134.445312 83.65625 133.910156 83.757812 C 133.886719 83.761719 133.863281 83.761719 133.816406 83.761719 C 133.988281 83.640625 134.175781 83.589844 134.292969 83.433594 C 134.3125 83.410156 134.34375 83.410156 134.371094 83.417969 C 134.738281 83.472656 135.109375 83.40625 135.480469 83.449219 C 135.714844 83.472656 135.925781 83.34375 136.066406 83.136719 C 136.160156 82.996094 136.265625 82.867188 136.402344 82.765625 C 136.511719 82.6875 136.542969 82.574219 136.53125 82.449219 C 136.488281 82.070312 136.4375 81.691406 136.222656 81.363281 C 136.132812 81.222656 136.128906 81.074219 136.164062 80.921875 C 136.175781 80.867188 136.179688 80.816406 136.171875 80.765625 C 136.089844 80.292969 136.199219 79.835938 136.308594 79.382812 C 136.316406 79.34375 136.34375 79.304688 136.359375 79.265625 C 136.367188 79.253906 136.628906 79.214844 136.632812 79.222656 C 136.664062 79.261719 136.660156 79.304688 136.664062 79.347656 C 136.671875 79.414062 136.640625 79.480469 136.679688 79.542969 C 136.691406 79.539062 136.703125 79.542969 136.707031 79.535156 C 136.75 79.492188 136.753906 79.382812 136.84375 79.414062 C 136.925781 79.445312 136.890625 79.539062 136.890625 79.605469 C 136.886719 79.660156 136.859375 79.707031 136.878906 79.765625 C 136.9375 79.746094 136.953125 79.691406 136.984375 79.652344 C 137.007812 79.625 137.03125 79.582031 137.078125 79.605469 C 137.117188 79.625 137.128906 79.664062 137.121094 79.703125 C 137.117188 79.75 137.109375 79.800781 137.097656 79.84375 C 137.085938 79.890625 137.074219 79.933594 137.085938 80 C 137.144531 79.957031 137.191406 79.917969 137.242188 79.882812 C 137.265625 79.863281 137.292969 79.855469 137.324219 79.875 C 137.351562 79.890625 137.367188 79.917969 137.351562 79.945312 C 137.269531 80.097656 137.382812 80.207031 137.4375 80.316406 C 137.527344 80.484375 137.613281 80.652344 137.65625 80.832031 C 137.707031 81.039062 137.875 81.183594 137.914062 81.390625 C 137.929688 81.484375 138 81.460938 138.046875 81.394531 C 138.160156 81.238281 138.246094 81.066406 138.34375 80.898438 C 138.375 80.84375 138.402344 80.730469 138.476562 80.761719 C 138.546875 80.792969 138.476562 80.882812 138.457031 80.941406 C 138.410156 81.070312 138.363281 81.203125 138.257812 81.304688 C 138.261719 81.304688 138.261719 81.304688 138.261719 81.308594 C 138.261719 81.304688 138.261719 81.300781 138.261719 81.296875 Z M 138.414062 82.300781 C 138.4375 82.160156 138.375 82.070312 138.277344 82.003906 C 138.246094 81.980469 138.199219 81.945312 138.160156 81.976562 C 138.121094 82.007812 138.140625 82.0625 138.152344 82.101562 C 138.207031 82.25 138.242188 82.402344 138.242188 82.5625 C 138.242188 82.589844 138.242188 82.625 138.28125 82.625 C 138.3125 82.625 138.34375 82.601562 138.355469 82.566406 C 138.390625 82.476562 138.433594 82.390625 138.414062 82.300781 Z M 138.414062 82.300781 " fill-opacity="1" fill-rule="nonzero"/><path fill="#000000" d="M 154.882812 81.4375 C 154.914062 81.433594 154.929688 81.410156 154.941406 81.382812 C 154.960938 81.339844 154.96875 81.273438 155.035156 81.296875 C 155.09375 81.316406 155.117188 81.378906 155.105469 81.4375 C 155.089844 81.523438 155.058594 81.605469 155.0625 81.703125 C 155.132812 81.675781 155.152344 81.613281 155.1875 81.566406 C 155.214844 81.527344 155.246094 81.476562 155.300781 81.507812 C 155.351562 81.535156 155.34375 81.589844 155.332031 81.636719 C 155.3125 81.699219 155.289062 81.761719 155.265625 81.828125 C 155.371094 81.851562 155.433594 81.722656 155.511719 81.761719 C 155.578125 81.796875 155.527344 81.902344 155.589844 81.972656 C 155.730469 82.117188 155.839844 82.289062 155.914062 82.480469 C 155.925781 82.503906 155.945312 82.527344 155.960938 82.550781 C 156.121094 82.757812 156.191406 82.757812 156.390625 82.585938 C 156.609375 82.394531 156.730469 82.132812 156.894531 81.902344 C 156.9375 81.84375 156.972656 81.773438 157.058594 81.726562 C 157.066406 81.890625 156.941406 81.988281 156.929688 82.136719 C 157.039062 82.011719 157.144531 81.886719 157.253906 81.761719 C 157.265625 81.769531 157.277344 81.777344 157.289062 81.785156 C 157.277344 81.988281 157.078125 82.09375 156.996094 82.300781 C 157.207031 82.203125 157.339844 82.050781 157.523438 81.96875 C 157.457031 82.160156 157.25 82.226562 157.109375 82.40625 C 157.289062 82.351562 157.429688 82.308594 157.585938 82.261719 C 157.574219 82.34375 157.476562 82.324219 157.472656 82.386719 C 157.480469 82.394531 157.484375 82.40625 157.492188 82.40625 C 157.675781 82.421875 157.675781 82.421875 157.585938 82.582031 C 157.492188 82.75 157.410156 82.925781 157.359375 83.109375 C 157.285156 83.367188 157.171875 83.605469 156.976562 83.796875 C 156.914062 83.859375 156.929688 83.894531 157 83.921875 C 157.382812 84.054688 157.761719 84.21875 158.183594 84.199219 C 158.332031 84.195312 158.453125 84.105469 158.601562 84.109375 C 158.691406 84.113281 158.773438 84.109375 158.855469 84.140625 C 158.890625 84.152344 158.941406 84.144531 158.9375 84.199219 C 158.9375 84.25 158.898438 84.273438 158.851562 84.285156 C 158.675781 84.320312 158.5 84.347656 158.324219 84.328125 C 158.160156 84.3125 157.996094 84.296875 157.835938 84.28125 C 157.792969 84.277344 157.742188 84.269531 157.703125 84.285156 C 157.453125 84.382812 157.191406 84.328125 156.933594 84.34375 C 156.691406 84.355469 156.449219 84.410156 156.207031 84.445312 C 155.917969 84.484375 155.628906 84.558594 155.335938 84.480469 C 155.183594 84.4375 155.042969 84.363281 154.878906 84.355469 C 154.769531 84.347656 154.65625 84.332031 154.546875 84.34375 C 154.121094 84.382812 153.6875 84.300781 153.269531 84.410156 C 152.988281 84.480469 152.703125 84.460938 152.425781 84.515625 C 152.402344 84.519531 152.378906 84.519531 152.359375 84.5 C 152.351562 84.457031 152.390625 84.445312 152.417969 84.429688 C 152.558594 84.347656 152.703125 84.277344 152.828125 84.167969 C 152.953125 84.058594 153.121094 84.097656 153.261719 84.132812 C 153.722656 84.246094 154.15625 84.230469 154.539062 83.902344 C 154.605469 83.84375 154.675781 83.773438 154.757812 83.738281 C 154.902344 83.671875 154.925781 83.5625 154.886719 83.429688 C 154.820312 83.179688 154.726562 82.945312 154.515625 82.777344 C 154.441406 82.71875 154.398438 82.652344 154.398438 82.554688 C 154.386719 82.175781 154.4375 81.796875 154.503906 81.425781 C 154.515625 81.339844 154.546875 81.253906 154.574219 81.175781 C 154.597656 81.121094 154.621094 81.035156 154.699219 81.132812 C 154.699219 81.136719 154.703125 81.140625 154.707031 81.140625 C 154.761719 81.148438 154.824219 81.058594 154.863281 81.152344 C 154.902344 81.246094 154.894531 81.34375 154.878906 81.4375 C 154.882812 81.445312 154.882812 81.449219 154.886719 81.457031 C 154.882812 81.449219 154.882812 81.445312 154.882812 81.4375 Z M 156.746094 83.234375 C 156.761719 83.046875 156.5625 82.875 156.394531 82.917969 C 156.335938 82.929688 156.328125 82.976562 156.355469 83.015625 C 156.429688 83.132812 156.503906 83.253906 156.589844 83.359375 C 156.636719 83.421875 156.699219 83.425781 156.71875 83.328125 C 156.730469 83.292969 156.742188 83.257812 156.746094 83.234375 Z M 156.667969 83.480469 C 156.65625 83.492188 156.644531 83.5 156.644531 83.511719 C 156.640625 83.519531 156.65625 83.535156 156.664062 83.535156 C 156.675781 83.535156 156.6875 83.523438 156.691406 83.511719 C 156.695312 83.503906 156.679688 83.492188 156.667969 83.480469 Z M 156.667969 83.480469 " fill-opacity="1" fill-rule="nonzero"/><path fill="#000000" d="M 194.402344 89.140625 C 194.578125 88.929688 194.753906 88.738281 194.917969 88.53125 C 195.007812 88.414062 195.132812 88.351562 195.265625 88.367188 C 195.445312 88.386719 195.621094 88.351562 195.800781 88.375 C 196.019531 88.402344 196.253906 88.394531 196.472656 88.371094 C 196.796875 88.339844 197.09375 88.433594 197.394531 88.511719 C 197.476562 88.53125 197.558594 88.570312 197.617188 88.636719 C 197.761719 88.800781 197.953125 88.835938 198.152344 88.839844 C 198.230469 88.839844 198.308594 88.84375 198.371094 88.902344 C 198.617188 89.125 198.914062 89.074219 199.203125 89.042969 C 199.375 89.019531 199.546875 89 199.714844 89.058594 C 199.761719 89.078125 199.816406 89.097656 199.808594 89.15625 C 199.800781 89.214844 199.742188 89.1875 199.703125 89.195312 C 199.421875 89.257812 199.136719 89.238281 198.855469 89.214844 C 198.703125 89.203125 198.578125 89.285156 198.433594 89.292969 C 198.371094 89.296875 198.394531 89.359375 198.402344 89.402344 C 198.453125 89.609375 198.382812 89.796875 198.304688 89.988281 C 198.25 90.121094 198.210938 90.257812 198.242188 90.417969 C 198.292969 90.660156 198.226562 90.902344 198.167969 91.140625 C 198.125 91.316406 198.039062 91.480469 198.085938 91.675781 C 198.125 91.824219 198.027344 92.039062 197.910156 92.050781 C 197.839844 92.058594 197.746094 92.097656 197.65625 92.023438 C 197.351562 91.78125 197.242188 91.421875 197.089844 91.09375 C 196.953125 90.796875 196.890625 90.476562 196.878906 90.140625 C 196.871094 89.945312 196.769531 89.753906 196.707031 89.5625 C 196.691406 89.519531 196.648438 89.5 196.601562 89.496094 C 196.390625 89.476562 196.191406 89.402344 195.996094 89.3125 C 195.914062 89.277344 195.820312 89.261719 195.730469 89.265625 C 195.589844 89.269531 195.492188 89.359375 195.460938 89.496094 C 195.457031 89.519531 195.457031 89.542969 195.445312 89.566406 C 195.425781 89.617188 195.40625 89.679688 195.351562 89.683594 C 195.285156 89.6875 195.28125 89.613281 195.269531 89.566406 C 195.257812 89.535156 195.265625 89.496094 195.222656 89.46875 C 195.191406 89.535156 195.164062 89.597656 195.128906 89.660156 C 195.109375 89.6875 195.09375 89.734375 195.042969 89.722656 C 195 89.710938 194.996094 89.667969 194.988281 89.628906 C 194.980469 89.582031 195 89.53125 194.964844 89.488281 C 194.910156 89.488281 194.902344 89.539062 194.875 89.566406 C 194.8125 89.632812 194.757812 89.675781 194.699219 89.5625 C 194.648438 89.460938 194.5625 89.519531 194.496094 89.542969 C 194.335938 89.605469 194.171875 89.652344 194 89.679688 C 193.957031 89.6875 193.914062 89.691406 193.871094 89.6875 C 193.785156 89.675781 193.753906 89.605469 193.804688 89.554688 C 193.933594 89.429688 194.050781 89.261719 194.273438 89.300781 C 194.304688 89.308594 194.339844 89.316406 194.371094 89.308594 C 194.429688 89.292969 194.515625 89.300781 194.523438 89.222656 C 194.53125 89.152344 194.4375 89.183594 194.402344 89.140625 Z M 194.402344 89.140625 " fill-opacity="1" fill-rule="nonzero"/><path fill="#000000" d="M 167.015625 64.910156 C 167.234375 65.015625 167.464844 64.964844 167.691406 64.96875 C 168.070312 64.972656 168.449219 64.898438 168.824219 64.980469 C 168.917969 65 169.003906 65.023438 169.066406 65.101562 C 169.230469 65.300781 169.488281 65.289062 169.703125 65.375 C 169.742188 65.390625 169.792969 65.382812 169.816406 65.425781 C 169.894531 65.554688 170.023438 65.542969 170.148438 65.558594 C 170.414062 65.585938 170.671875 65.496094 170.933594 65.503906 C 171.03125 65.503906 171.125 65.515625 171.230469 65.542969 C 171.175781 65.625 171.078125 65.574219 171.015625 65.632812 C 171.066406 65.710938 171.167969 65.699219 171.25 65.746094 C 170.972656 65.816406 170.707031 65.804688 170.441406 65.773438 C 170.222656 65.75 170 65.734375 169.78125 65.714844 C 169.691406 65.707031 169.640625 65.734375 169.605469 65.824219 C 169.550781 65.957031 169.484375 66.085938 169.421875 66.214844 C 169.410156 66.242188 169.402344 66.269531 169.414062 66.296875 C 169.511719 66.527344 169.417969 66.769531 169.445312 67.007812 C 169.46875 67.207031 169.378906 67.410156 169.472656 67.605469 C 169.480469 67.625 169.480469 67.644531 169.480469 67.664062 C 169.480469 67.710938 169.492188 67.769531 169.4375 67.789062 C 169.378906 67.8125 169.386719 67.726562 169.332031 67.71875 C 169.324219 67.777344 169.320312 67.839844 169.304688 67.894531 C 169.292969 67.941406 169.324219 68.066406 169.199219 67.953125 C 169.144531 67.902344 169.148438 68.03125 169.085938 68.050781 C 169.042969 68.023438 169.019531 67.949219 168.9375 67.976562 C 168.910156 67.984375 168.886719 67.9375 168.875 67.90625 C 168.734375 67.570312 168.484375 67.292969 168.335938 66.957031 C 168.246094 66.753906 168.15625 66.554688 168.113281 66.335938 C 168.089844 66.226562 168.058594 66.125 168.015625 66.019531 C 167.960938 65.898438 167.863281 65.863281 167.75 65.859375 C 167.644531 65.855469 167.648438 65.964844 167.601562 66.023438 C 167.515625 66.128906 167.550781 66.292969 167.414062 66.371094 C 167.371094 66.398438 167.414062 66.460938 167.410156 66.507812 C 167.40625 66.527344 167.410156 66.546875 167.410156 66.566406 C 167.40625 66.636719 167.417969 66.738281 167.339844 66.757812 C 167.25 66.777344 167.269531 66.664062 167.230469 66.613281 C 167.21875 66.597656 167.210938 66.574219 167.1875 66.53125 C 167.164062 66.660156 167.167969 66.773438 167.113281 66.871094 C 167.101562 66.894531 167.09375 66.933594 167.058594 66.921875 C 167.042969 66.917969 167.027344 66.890625 167.019531 66.867188 C 166.996094 66.792969 166.972656 66.714844 166.941406 66.609375 C 166.902344 66.707031 166.878906 66.78125 166.847656 66.851562 C 166.835938 66.882812 166.820312 66.917969 166.777344 66.914062 C 166.734375 66.90625 166.738281 66.863281 166.726562 66.835938 C 166.707031 66.777344 166.730469 66.707031 166.6875 66.65625 C 166.675781 66.660156 166.664062 66.65625 166.65625 66.664062 C 166.613281 66.703125 166.59375 66.796875 166.523438 66.773438 C 166.445312 66.746094 166.480469 66.65625 166.480469 66.59375 C 166.476562 66.53125 166.46875 66.488281 166.410156 66.449219 C 166.316406 66.382812 166.335938 66.269531 166.335938 66.171875 C 166.339844 65.890625 166.339844 65.886719 166.066406 65.957031 C 165.78125 66.03125 165.507812 66.140625 165.210938 66.171875 C 165.101562 66.183594 164.992188 66.15625 164.882812 66.203125 C 164.847656 66.21875 164.824219 66.179688 164.808594 66.148438 C 164.789062 66.113281 164.824219 66.097656 164.851562 66.089844 C 164.980469 66.046875 165.082031 65.960938 165.183594 65.871094 C 165.273438 65.792969 165.394531 65.789062 165.488281 65.828125 C 165.675781 65.910156 165.84375 65.820312 166.019531 65.792969 C 166.375 65.742188 166.464844 65.582031 166.503906 65.226562 C 166.527344 65.023438 166.59375 64.953125 166.816406 64.921875 C 166.882812 64.910156 166.949219 64.914062 167.015625 64.910156 Z M 170.621094 65.691406 C 170.503906 65.636719 170.265625 65.628906 170.152344 65.679688 C 170.296875 65.691406 170.441406 65.722656 170.621094 65.691406 Z M 170.621094 65.691406 " fill-opacity="1" fill-rule="nonzero"/><path fill="#000000" d="M 188.445312 88.613281 C 188.378906 88.558594 188.296875 88.554688 188.214844 88.554688 C 188.152344 88.550781 188.121094 88.523438 188.164062 88.464844 C 188.332031 88.230469 188.351562 87.953125 188.386719 87.679688 C 188.390625 87.648438 188.390625 87.613281 188.398438 87.582031 C 188.414062 87.5 188.398438 87.351562 188.46875 87.355469 C 188.5625 87.355469 188.546875 87.496094 188.558594 87.582031 C 188.574219 87.703125 188.546875 87.824219 188.523438 87.941406 C 188.511719 87.992188 188.488281 88.039062 188.523438 88.097656 C 188.613281 88.046875 188.628906 87.953125 188.660156 87.871094 C 188.703125 87.757812 188.734375 87.640625 188.773438 87.527344 C 188.789062 87.492188 188.785156 87.425781 188.84375 87.433594 C 188.902344 87.441406 188.902344 87.503906 188.910156 87.550781 C 188.933594 87.730469 188.867188 87.890625 188.773438 88.042969 C 188.746094 88.085938 188.695312 88.125 188.710938 88.210938 C 188.855469 88.152344 188.945312 88.042969 189.035156 87.933594 C 189.070312 87.890625 189.101562 87.839844 189.132812 87.792969 C 189.160156 87.753906 189.179688 87.691406 189.238281 87.726562 C 189.285156 87.757812 189.265625 87.816406 189.246094 87.859375 C 189.199219 87.972656 189.101562 88.039062 189.023438 88.121094 C 188.996094 88.148438 188.957031 88.179688 188.972656 88.21875 C 188.996094 88.269531 189.042969 88.238281 189.078125 88.234375 C 189.195312 88.234375 189.316406 88.230469 189.4375 88.222656 C 189.53125 88.21875 189.554688 88.253906 189.519531 88.347656 C 189.410156 88.652344 189.238281 88.90625 188.917969 89.023438 C 188.835938 89.054688 188.824219 89.089844 188.90625 89.136719 C 188.925781 89.148438 188.945312 89.175781 188.964844 89.175781 C 189.335938 89.1875 189.648438 89.464844 190.035156 89.414062 C 190.125 89.402344 190.183594 89.332031 190.277344 89.335938 C 190.414062 89.339844 190.542969 89.359375 190.65625 89.445312 C 190.6875 89.46875 190.730469 89.476562 190.714844 89.527344 C 190.703125 89.574219 190.660156 89.570312 190.621094 89.582031 C 190.324219 89.652344 190.03125 89.589844 189.734375 89.550781 C 189.386719 89.5 189.035156 89.496094 188.683594 89.484375 C 188.488281 89.476562 188.3125 89.574219 188.125 89.617188 C 187.777344 89.691406 187.425781 89.757812 187.074219 89.632812 C 186.957031 89.59375 186.839844 89.546875 186.722656 89.5 C 186.585938 89.449219 186.453125 89.453125 186.320312 89.519531 C 186.015625 89.675781 185.695312 89.683594 185.363281 89.660156 C 185.011719 89.632812 184.664062 89.6875 184.320312 89.746094 C 184.28125 89.753906 184.222656 89.792969 184.203125 89.742188 C 184.179688 89.691406 184.238281 89.660156 184.28125 89.640625 C 184.398438 89.574219 184.503906 89.5 184.605469 89.40625 C 184.769531 89.25 184.96875 89.316406 185.144531 89.394531 C 185.519531 89.570312 185.859375 89.546875 186.109375 89.296875 C 186.238281 89.171875 186.339844 89.015625 186.484375 88.902344 C 186.558594 88.84375 186.515625 88.765625 186.457031 88.714844 C 186.292969 88.574219 186.113281 88.464844 185.898438 88.425781 C 185.769531 88.398438 185.664062 88.339844 185.550781 88.269531 C 185.03125 87.941406 184.835938 87.441406 184.777344 86.863281 C 184.769531 86.800781 184.742188 86.703125 184.8125 86.679688 C 184.890625 86.648438 184.972656 86.679688 185.042969 86.75 C 185.207031 86.917969 185.359375 87.097656 185.585938 87.183594 C 185.605469 87.1875 185.625 87.199219 185.636719 87.210938 C 185.710938 87.328125 185.777344 87.453125 185.953125 87.390625 C 185.957031 87.390625 185.972656 87.398438 185.976562 87.402344 C 186.164062 87.636719 186.492188 87.644531 186.699219 87.847656 C 186.910156 88.058594 187.203125 88.160156 187.394531 88.394531 C 187.429688 88.4375 187.476562 88.453125 187.53125 88.46875 C 187.71875 88.515625 187.898438 88.582031 188.074219 88.675781 C 188.160156 88.722656 188.28125 88.707031 188.386719 88.710938 C 188.441406 88.710938 188.441406 88.65625 188.441406 88.609375 C 188.496094 88.660156 188.550781 88.707031 188.628906 88.671875 C 188.644531 88.664062 188.648438 88.632812 188.632812 88.621094 C 188.570312 88.574219 188.511719 88.546875 188.445312 88.613281 Z M 188.445312 88.613281 " fill-opacity="1" fill-rule="nonzero"/><path fill="#000000" d="M 178.75 63.421875 C 178.753906 63.53125 178.828125 63.609375 178.84375 63.710938 C 178.847656 63.753906 178.855469 63.800781 178.8125 63.828125 C 178.757812 63.863281 178.734375 63.808594 178.707031 63.78125 C 178.660156 63.730469 178.628906 63.671875 178.535156 63.714844 C 178.484375 63.734375 178.4375 63.664062 178.398438 63.621094 C 178.328125 63.546875 178.269531 63.46875 178.148438 63.472656 C 178.09375 63.476562 178.054688 63.433594 178.019531 63.390625 C 177.949219 63.308594 177.886719 63.246094 177.753906 63.257812 C 177.644531 63.261719 177.59375 63.128906 177.542969 63.042969 C 177.5 62.976562 177.476562 62.894531 177.464844 62.8125 C 177.4375 62.652344 177.386719 62.507812 177.273438 62.386719 C 177.175781 62.285156 177.207031 62.164062 177.226562 62.046875 C 177.257812 61.835938 177.253906 61.851562 177.058594 61.785156 C 176.671875 61.660156 176.28125 61.757812 175.894531 61.746094 C 175.523438 61.734375 175.15625 61.746094 174.789062 61.808594 C 174.660156 61.832031 174.527344 61.824219 174.398438 61.796875 C 174.269531 61.765625 174.144531 61.835938 174.003906 61.800781 C 174.101562 61.753906 174.199219 61.703125 174.296875 61.660156 C 174.367188 61.628906 174.433594 61.59375 174.492188 61.539062 C 174.617188 61.421875 174.921875 61.414062 175.066406 61.511719 C 175.085938 61.527344 175.109375 61.539062 175.132812 61.542969 C 175.667969 61.625 176.144531 61.523438 176.511719 61.085938 C 176.550781 61.039062 176.546875 61.011719 176.488281 60.988281 C 176.316406 60.925781 176.160156 61.007812 176.117188 61.191406 C 176.109375 61.222656 176.101562 61.253906 176.089844 61.285156 C 176.058594 61.355469 176.023438 61.367188 175.976562 61.296875 C 175.96875 61.28125 175.957031 61.265625 175.945312 61.25 C 175.84375 61.078125 175.84375 61.082031 175.683594 61.195312 C 175.640625 61.226562 175.597656 61.273438 175.53125 61.230469 C 175.492188 61.203125 175.445312 61.21875 175.40625 61.242188 C 175.21875 61.34375 175.054688 61.289062 174.90625 61.160156 C 174.789062 61.058594 174.699219 60.929688 174.632812 60.789062 C 174.613281 60.75 174.585938 60.703125 174.628906 60.671875 C 174.679688 60.628906 174.722656 60.675781 174.75 60.710938 C 174.875 60.882812 175.050781 60.972656 175.238281 61.054688 C 175.378906 61.117188 175.507812 61.097656 175.652344 61.039062 C 176.058594 60.871094 176.480469 60.777344 176.925781 60.789062 C 177.285156 60.796875 177.648438 60.761719 178.007812 60.789062 C 178.164062 60.796875 178.292969 60.84375 178.421875 60.953125 C 178.585938 61.101562 178.8125 61.09375 179.023438 61.109375 C 179.1875 61.121094 179.347656 61.109375 179.492188 61.214844 C 179.53125 61.246094 179.558594 61.285156 179.5625 61.335938 C 179.566406 61.40625 179.488281 61.355469 179.449219 61.414062 C 179.753906 61.433594 180.03125 61.535156 180.328125 61.417969 C 180.511719 61.34375 180.695312 61.414062 180.867188 61.484375 C 180.890625 61.492188 180.894531 61.511719 180.890625 61.53125 C 180.875 61.574219 180.839844 61.570312 180.804688 61.570312 C 180.535156 61.589844 180.269531 61.582031 180 61.558594 C 179.714844 61.53125 179.425781 61.492188 179.136719 61.523438 C 179.058594 61.53125 179.035156 61.542969 179.03125 61.625 C 179.019531 61.867188 178.992188 62.105469 178.964844 62.34375 C 178.945312 62.496094 178.976562 62.65625 178.96875 62.816406 C 178.964844 62.957031 178.96875 63.101562 178.933594 63.242188 C 178.914062 63.320312 178.984375 63.363281 179.015625 63.417969 C 179.0625 63.492188 179.105469 63.566406 179.097656 63.65625 C 179.09375 63.722656 179.0625 63.75 179.007812 63.691406 C 178.921875 63.601562 178.835938 63.511719 178.75 63.421875 Z M 178.75 63.421875 " fill-opacity="1" fill-rule="nonzero"/><path fill="#000000" d="M 149.578125 71.234375 C 149.585938 71.171875 149.632812 71.15625 149.671875 71.132812 C 149.808594 71.042969 149.953125 70.96875 150.070312 70.847656 C 150.21875 70.691406 150.421875 70.753906 150.605469 70.773438 C 151.109375 70.824219 151.582031 70.769531 151.980469 70.421875 C 152.046875 70.363281 152.109375 70.300781 152.171875 70.242188 C 152.207031 70.207031 152.246094 70.171875 152.21875 70.117188 C 152.195312 70.066406 152.144531 70.046875 152.085938 70.054688 C 151.921875 70.074219 151.769531 70.121094 151.636719 70.230469 C 151.488281 70.351562 151.386719 70.351562 151.238281 70.226562 C 151.15625 70.15625 151.0625 70.089844 151.019531 69.984375 C 150.988281 69.917969 150.902344 69.859375 150.996094 69.785156 C 151.082031 69.714844 151.167969 69.660156 151.273438 69.757812 C 151.324219 69.808594 151.386719 69.835938 151.46875 69.816406 C 151.566406 69.792969 151.640625 69.867188 151.714844 69.917969 C 151.777344 69.96875 151.835938 69.976562 151.914062 69.949219 C 152.226562 69.847656 152.558594 69.878906 152.882812 69.835938 C 153.183594 69.800781 153.488281 69.816406 153.792969 69.8125 C 153.964844 69.8125 154.117188 69.863281 154.210938 70.019531 C 154.242188 70.066406 154.285156 70.089844 154.339844 70.101562 C 154.675781 70.171875 155.007812 70.246094 155.339844 70.320312 C 155.445312 70.34375 155.5625 70.347656 155.515625 70.511719 C 155.503906 70.554688 155.542969 70.570312 155.578125 70.570312 C 155.792969 70.589844 155.996094 70.644531 156.222656 70.585938 C 156.351562 70.550781 156.539062 70.515625 156.648438 70.6875 C 156.683594 70.738281 156.808594 70.710938 156.78125 70.789062 C 156.75 70.878906 156.664062 70.796875 156.601562 70.792969 C 156.121094 70.765625 155.65625 70.632812 155.175781 70.605469 C 155.144531 70.601562 155.117188 70.597656 155.089844 70.597656 C 154.921875 70.605469 154.910156 70.628906 154.933594 70.785156 C 154.976562 71.03125 154.941406 71.277344 154.890625 71.515625 C 154.855469 71.671875 154.820312 71.828125 154.921875 71.972656 C 154.941406 72.003906 154.953125 72.050781 154.921875 72.082031 C 154.882812 72.117188 154.835938 72.097656 154.800781 72.066406 C 154.746094 72.015625 154.691406 72.003906 154.621094 72.039062 C 154.542969 72.078125 154.46875 72.027344 154.421875 71.984375 C 154.292969 71.859375 154.148438 71.898438 154.007812 71.921875 C 153.945312 71.933594 153.890625 71.925781 153.84375 71.902344 C 153.757812 71.859375 153.679688 71.804688 153.574219 71.855469 C 153.527344 71.882812 153.480469 71.835938 153.46875 71.785156 C 153.421875 71.578125 153.324219 71.402344 153.207031 71.230469 C 153.164062 71.164062 153.175781 71.078125 153.171875 71.003906 C 153.164062 70.925781 153.132812 70.886719 153.054688 70.863281 C 152.671875 70.757812 152.296875 70.726562 151.902344 70.84375 C 151.507812 70.957031 151.082031 70.933594 150.679688 71.039062 C 150.332031 71.128906 149.964844 71.113281 149.621094 71.238281 C 149.609375 71.242188 149.59375 71.238281 149.578125 71.234375 Z M 149.578125 71.234375 " fill-opacity="1" fill-rule="nonzero"/><g clip-path="url(#eb90ae6cbc)"><path fill="#000000" d="M 189.300781 94.585938 C 189.402344 94.464844 189.546875 94.398438 189.667969 94.308594 C 189.785156 94.21875 189.960938 94.234375 190.113281 94.285156 C 190.21875 94.316406 190.324219 94.351562 190.429688 94.378906 C 190.734375 94.457031 190.992188 94.378906 191.195312 94.140625 C 191.292969 94.023438 191.390625 93.902344 191.484375 93.78125 C 191.65625 93.558594 191.667969 93.257812 191.511719 93.039062 C 191.503906 93.105469 191.496094 93.167969 191.484375 93.226562 C 191.476562 93.269531 191.464844 93.320312 191.414062 93.324219 C 191.355469 93.332031 191.355469 93.273438 191.339844 93.234375 C 191.3125 93.160156 191.328125 93.074219 191.277344 92.992188 C 191.222656 93.074219 191.246094 93.164062 191.210938 93.234375 C 191.1875 93.277344 191.175781 93.351562 191.113281 93.339844 C 191.058594 93.328125 191.0625 93.261719 191.054688 93.21875 C 191.046875 93.171875 191.070312 93.121094 191.035156 93.070312 C 190.96875 93.101562 190.960938 93.175781 190.914062 93.21875 C 190.894531 93.242188 190.871094 93.261719 190.839844 93.25 C 190.8125 93.242188 190.804688 93.214844 190.808594 93.191406 C 190.863281 92.964844 190.738281 92.753906 190.765625 92.527344 C 190.792969 92.308594 190.878906 92.214844 191.082031 92.285156 C 191.476562 92.425781 191.890625 92.488281 192.292969 92.609375 C 192.722656 92.742188 193.003906 93.027344 193.183594 93.429688 C 193.203125 93.46875 193.21875 93.507812 193.230469 93.550781 C 193.265625 93.691406 193.335938 93.761719 193.5 93.726562 C 193.617188 93.699219 193.734375 93.761719 193.84375 93.808594 C 193.914062 93.839844 193.921875 93.910156 193.894531 93.96875 C 193.828125 94.089844 193.882812 94.152344 193.984375 94.210938 C 194.039062 94.242188 194.128906 94.269531 194.007812 94.355469 C 193.933594 94.40625 194.023438 94.46875 194.078125 94.484375 C 194.289062 94.546875 194.5 94.613281 194.726562 94.585938 C 194.886719 94.566406 195.035156 94.597656 195.175781 94.660156 C 195.214844 94.679688 195.257812 94.707031 195.246094 94.757812 C 195.230469 94.824219 195.179688 94.789062 195.140625 94.792969 C 194.835938 94.839844 194.550781 94.722656 194.257812 94.6875 C 194.21875 94.679688 194.167969 94.660156 194.136719 94.699219 C 194.097656 94.742188 194.125 94.789062 194.144531 94.835938 C 194.167969 94.898438 194.203125 94.957031 194.222656 95.019531 C 194.257812 95.132812 194.101562 95.347656 193.988281 95.339844 C 193.917969 95.335938 193.90625 95.257812 193.890625 95.210938 C 193.828125 95.035156 193.753906 94.871094 193.664062 94.710938 C 193.582031 94.570312 193.476562 94.503906 193.3125 94.511719 C 193.132812 94.523438 192.957031 94.535156 192.785156 94.582031 C 192.425781 94.683594 192.074219 94.671875 191.726562 94.523438 C 191.675781 94.5 191.621094 94.476562 191.5625 94.488281 C 191.105469 94.585938 190.648438 94.582031 190.183594 94.558594 C 189.917969 94.542969 189.652344 94.613281 189.382812 94.59375 C 189.355469 94.59375 189.324219 94.609375 189.300781 94.585938 Z M 194.011719 95.136719 C 194.007812 95.160156 194.003906 95.171875 194.007812 95.183594 C 194.011719 95.195312 194.023438 95.203125 194.03125 95.210938 C 194.035156 95.199219 194.042969 95.1875 194.039062 95.175781 C 194.035156 95.164062 194.023438 95.152344 194.011719 95.136719 Z M 194.011719 95.136719 " fill-opacity="1" fill-rule="nonzero"/></g><path fill="#000000" d="M 177.667969 87.316406 C 177.949219 87.375 178.234375 87.332031 178.511719 87.292969 C 178.832031 87.242188 179.035156 87.007812 179.230469 86.769531 C 179.265625 86.726562 179.234375 86.691406 179.195312 86.683594 C 179.128906 86.667969 179.0625 86.648438 178.996094 86.652344 C 178.78125 86.65625 178.566406 86.671875 178.347656 86.683594 C 178.269531 86.6875 178.191406 86.691406 178.132812 86.632812 C 177.957031 86.457031 177.800781 86.269531 177.722656 86.027344 C 177.710938 85.984375 177.675781 85.933594 177.726562 85.898438 C 177.761719 85.871094 177.816406 85.863281 177.863281 85.886719 C 177.894531 85.90625 177.9375 85.914062 177.960938 85.941406 C 178.035156 86.019531 178.09375 86.089844 178.222656 86.0625 C 178.308594 86.046875 178.371094 86.148438 178.425781 86.210938 C 178.476562 86.261719 178.515625 86.289062 178.589844 86.253906 C 178.625 86.238281 178.683594 86.21875 178.710938 86.261719 C 178.792969 86.382812 178.894531 86.324219 178.996094 86.304688 C 179.140625 86.277344 179.289062 86.25 179.433594 86.226562 C 179.527344 86.210938 179.625 86.214844 179.695312 86.273438 C 179.808594 86.371094 179.933594 86.378906 180.0625 86.367188 C 180.253906 86.351562 180.433594 86.402344 180.609375 86.472656 C 180.988281 86.628906 181.378906 86.746094 181.792969 86.757812 C 181.910156 86.761719 182.007812 86.835938 182.117188 86.871094 C 182.363281 86.949219 182.601562 86.945312 182.847656 86.859375 C 182.984375 86.8125 183.132812 86.769531 183.285156 86.816406 C 183.328125 86.832031 183.394531 86.839844 183.394531 86.890625 C 183.390625 86.945312 183.328125 86.945312 183.28125 86.957031 C 182.953125 87.0625 182.625 87 182.292969 87 C 182.21875 87 182.140625 86.992188 182.0625 87 C 181.773438 87.019531 181.621094 87.261719 181.734375 87.53125 C 181.746094 87.566406 181.773438 87.605469 181.75 87.640625 C 181.722656 87.679688 181.679688 87.652344 181.644531 87.648438 C 181.246094 87.582031 180.855469 87.421875 180.449219 87.601562 C 180.410156 87.617188 180.363281 87.609375 180.34375 87.574219 C 180.292969 87.46875 180.207031 87.476562 180.113281 87.480469 C 180.03125 87.480469 179.945312 87.480469 179.867188 87.453125 C 179.5 87.328125 179.128906 87.375 178.757812 87.429688 C 178.386719 87.480469 178.011719 87.492188 177.644531 87.589844 C 177.402344 87.65625 177.140625 87.570312 176.890625 87.640625 C 176.882812 87.570312 176.921875 87.566406 176.949219 87.554688 C 177.089844 87.488281 177.230469 87.441406 177.355469 87.339844 C 177.441406 87.269531 177.5625 87.265625 177.671875 87.320312 C 177.671875 87.320312 177.667969 87.316406 177.667969 87.316406 Z M 177.667969 87.316406 " fill-opacity="1" fill-rule="nonzero"/><path fill="#000000" d="M 193.730469 89.726562 L 193.738281 89.722656 L 193.742188 89.730469 Z M 193.730469 89.726562 " fill-opacity="1" fill-rule="nonzero"/><path fill="#000000" d="M 167.015625 64.910156 C 167.023438 64.910156 167.03125 64.914062 167.039062 64.914062 C 167.03125 64.914062 167.023438 64.910156 167.015625 64.910156 Z M 167.015625 64.910156 " fill-opacity="1" fill-rule="nonzero"/></svg>